<svg width="11" height="8" viewBox="0 0 11 8" fill="none" xmlns="http://www.w3.org/2000/svg">
<path d="M10.9252 7.32637L6.10446 0.680469C5.92946 0.439844 5.57126 0.439844 5.39762 0.680469L0.575554 7.32637C0.563687 7.34271 0.556579 7.36202 0.555016 7.38216C0.553452 7.4023 0.557496 7.42248 0.566699 7.44046C0.575901 7.45844 0.589903 7.47352 0.607152 7.48403C0.624401 7.49454 0.644223 7.50007 0.664421 7.5H1.68981C1.75954 7.5 1.82516 7.46582 1.86618 7.40977L5.75036 2.05586L9.63454 7.40977C9.67555 7.46582 9.74118 7.5 9.81091 7.5H10.8363C10.9252 7.5 10.9771 7.39883 10.9252 7.32637Z" fill="#595959"/>
</svg>

