<svg width="23" height="18" viewBox="0 0 23 18" fill="none" xmlns="http://www.w3.org/2000/svg">
<path d="M21.5681 0.0020761H15.8806C14.6601 0.0020761 13.4669 0.352573 12.4403 1.01379L11.2272 1.79185L10.0141 1.01379C8.9885 0.3527 7.79399 0.00142362 6.57377 0.0020761H0.886275C0.446289 0.0020761 0.0908203 0.357545 0.0908203 0.797531V14.9169C0.0908203 15.3568 0.446289 15.7123 0.886275 15.7123H6.57377C7.7943 15.7123 8.98748 16.0628 10.0141 16.724L11.1178 17.435C11.1501 17.4548 11.1874 17.4673 11.2247 17.4673C11.262 17.4673 11.2993 17.4573 11.3316 17.435L12.4353 16.724C13.4644 16.0628 14.6601 15.7123 15.8806 15.7123H21.5681C22.0081 15.7123 22.3635 15.3568 22.3635 14.9169V0.797531C22.3635 0.357545 22.0081 0.0020761 21.5681 0.0020761ZM8.54252 9.75882C8.54252 9.86074 8.46298 9.94526 8.36603 9.94526H3.74743C3.65048 9.94526 3.57093 9.86074 3.57093 9.75882V8.64021C3.57093 8.5383 3.65048 8.45378 3.74743 8.45378H8.36355C8.46049 8.45378 8.54004 8.5383 8.54004 8.64021V9.75882H8.54252ZM8.54252 6.27871C8.54252 6.38063 8.46298 6.46514 8.36603 6.46514H3.74743C3.65048 6.46514 3.57093 6.38063 3.57093 6.27871V5.1601C3.57093 5.05818 3.65048 4.97367 3.74743 4.97367H8.36355C8.46049 4.97367 8.54004 5.05818 8.54004 5.1601V6.27871H8.54252ZM18.8834 9.75882C18.8834 9.86074 18.8039 9.94526 18.7069 9.94526H14.0883C13.9914 9.94526 13.9118 9.86074 13.9118 9.75882V8.64021C13.9118 8.5383 13.9914 8.45378 14.0883 8.45378H18.7045C18.8014 8.45378 18.8809 8.5383 18.8809 8.64021V9.75882H18.8834ZM18.8834 6.27871C18.8834 6.38063 18.8039 6.46514 18.7069 6.46514H14.0883C13.9914 6.46514 13.9118 6.38063 13.9118 6.27871V5.1601C13.9118 5.05818 13.9914 4.97367 14.0883 4.97367H18.7045C18.8014 4.97367 18.8809 5.05818 18.8809 5.1601V6.27871H18.8834Z" fill="#595959"/>
</svg>