<svg width="16" height="16" viewBox="0 0 16 16" fill="none" xmlns="http://www.w3.org/2000/svg">
<path d="M14.2582 11.8661H13.0225C12.9381 11.8661 12.859 11.903 12.8063 11.968C12.6832 12.1174 12.5514 12.2616 12.4125 12.3987C11.8445 12.9672 11.1718 13.4203 10.4314 13.7329C9.66444 14.0568 8.84004 14.223 8.00742 14.2215C7.16543 14.2215 6.34981 14.0563 5.5834 13.7329C4.84306 13.4203 4.17031 12.9672 3.60234 12.3987C3.03337 11.8321 2.57968 11.1605 2.26641 10.4211C1.94121 9.65473 1.77773 8.84086 1.77773 7.99887C1.77773 7.15688 1.94297 6.34301 2.26641 5.5766C2.5793 4.83656 3.0293 4.17035 3.60234 3.59906C4.17539 3.02777 4.8416 2.57777 5.5834 2.26488C6.34981 1.94145 7.16543 1.77621 8.00742 1.77621C8.84942 1.77621 9.66504 1.93969 10.4314 2.26488C11.1732 2.57777 11.8395 3.02777 12.4125 3.59906C12.5514 3.73793 12.6814 3.88207 12.8063 4.02973C12.859 4.09477 12.9398 4.13168 13.0225 4.13168H14.2582C14.3689 4.13168 14.4375 4.00863 14.376 3.91547C13.0277 1.82016 10.6688 0.433242 7.98809 0.440273C3.77637 0.45082 0.39961 3.86977 0.441797 8.07621C0.483985 12.2159 3.85547 15.5575 8.00742 15.5575C10.6811 15.5575 13.0295 14.1723 14.376 12.0823C14.4357 11.9891 14.3689 11.8661 14.2582 11.8661ZM15.8209 7.88813L13.3266 5.91938C13.2334 5.84555 13.098 5.91234 13.098 6.03012V7.36605H7.57852C7.50117 7.36605 7.43789 7.42934 7.43789 7.50668V8.49105C7.43789 8.5684 7.50117 8.63168 7.57852 8.63168H13.098V9.96762C13.098 10.0854 13.2352 10.1522 13.3266 10.0784L15.8209 8.10961C15.8377 8.09646 15.8513 8.07965 15.8607 8.06046C15.87 8.04127 15.8749 8.02021 15.8749 7.99887C15.8749 7.97752 15.87 7.95646 15.8607 7.93727C15.8513 7.91809 15.8377 7.90128 15.8209 7.88813Z" fill="#8C8C8C"/>
</svg>