<svg width="7" height="14" viewBox="0 0 7 14" fill="none" xmlns="http://www.w3.org/2000/svg">
<path d="M6.11247 1.98154V0.660494C6.11247 0.545992 6.01359 0.482759 5.94682 0.552828L0.157966 6.57016C0.108782 6.62107 0.0689837 6.68625 0.0416074 6.76074C0.0142311 6.83523 0 6.91705 0 6.99997C0 7.08289 0.0142311 7.16472 0.0416074 7.23921C0.0689837 7.3137 0.108782 7.37888 0.157966 7.42978L5.94682 13.4471C6.01488 13.5172 6.11247 13.454 6.11247 13.3395V12.0184C6.11247 11.9347 6.08293 11.8543 6.03414 11.8031L1.41128 7.00083L6.03414 2.19687C6.08293 2.1456 6.11247 2.06528 6.11247 1.98154Z" fill="#595959"/>
</svg>
