<svg width="23" height="18" viewBox="0 0 23 18" fill="none" xmlns="http://www.w3.org/2000/svg">
<path d="M21.5691 0.0020761H15.8816C14.661 0.0020761 13.4679 0.352573 12.4412 1.01379L11.2282 1.79185L10.0151 1.01379C8.98948 0.3527 7.79497 0.00142362 6.57475 0.0020761H0.887251C0.447266 0.0020761 0.0917969 0.357545 0.0917969 0.797531V14.9169C0.0917969 15.3568 0.447266 15.7123 0.887251 15.7123H6.57475C7.79528 15.7123 8.98846 16.0628 10.0151 16.724L11.1188 17.435C11.1511 17.4548 11.1884 17.4673 11.2257 17.4673C11.263 17.4673 11.3002 17.4573 11.3326 17.435L12.4363 16.724C13.4654 16.0628 14.661 15.7123 15.8816 15.7123H21.5691C22.0091 15.7123 22.3645 15.3568 22.3645 14.9169V0.797531C22.3645 0.357545 22.0091 0.0020761 21.5691 0.0020761ZM8.5435 9.75882C8.5435 9.86074 8.46395 9.94526 8.36701 9.94526H3.7484C3.65146 9.94526 3.57191 9.86074 3.57191 9.75882V8.64021C3.57191 8.5383 3.65146 8.45378 3.7484 8.45378H8.36452C8.46147 8.45378 8.54101 8.5383 8.54101 8.64021V9.75882H8.5435ZM8.5435 6.27871C8.5435 6.38063 8.46395 6.46514 8.36701 6.46514H3.7484C3.65146 6.46514 3.57191 6.38063 3.57191 6.27871V5.1601C3.57191 5.05818 3.65146 4.97367 3.7484 4.97367H8.36452C8.46147 4.97367 8.54101 5.05818 8.54101 5.1601V6.27871H8.5435ZM18.8844 9.75882C18.8844 9.86074 18.8049 9.94526 18.7079 9.94526H14.0893C13.9924 9.94526 13.9128 9.86074 13.9128 9.75882V8.64021C13.9128 8.5383 13.9924 8.45378 14.0893 8.45378H18.7054C18.8024 8.45378 18.8819 8.5383 18.8819 8.64021V9.75882H18.8844ZM18.8844 6.27871C18.8844 6.38063 18.8049 6.46514 18.7079 6.46514H14.0893C13.9924 6.46514 13.9128 6.38063 13.9128 6.27871V5.1601C13.9128 5.05818 13.9924 4.97367 14.0893 4.97367H18.7054C18.8024 4.97367 18.8819 5.05818 18.8819 5.1601V6.27871H18.8844Z" fill="#1890FF"/>
</svg>