<svg width="11" height="10" viewBox="0 0 11 10" fill="none" xmlns="http://www.w3.org/2000/svg">
<path d="M1.91308 4.26257H1.91326C1.99256 4.26267 2.07081 4.28073 2.14213 4.31539C2.21341 4.35004 2.27591 4.40037 2.32497 4.46261L1.91308 4.26257ZM1.91308 4.26257H1.09394C0.890308 4.26257 0.776602 4.49717 0.902321 4.65662L0.902371 4.65668L4.11214 8.72309L4.11218 8.72315C4.32247 8.98929 4.72568 8.98855 4.93667 8.72359L4.93708 8.72307L10.6597 1.4714C10.6598 1.4712 10.66 1.471 10.6602 1.47079C10.7884 1.31037 10.6699 1.07742 10.4689 1.07742H9.6498C9.48941 1.07742 9.33668 1.15092 9.2376 1.27786C9.23751 1.27797 9.23742 1.27808 9.23734 1.27819L4.52403 7.24898M1.91308 4.26257L4.52403 7.24898M4.52403 7.24898L2.32506 4.46273L4.52403 7.24898Z" fill="#595959" stroke="#595959" stroke-width="0.3"/>
</svg>