<svg width="14" height="16" viewBox="0 0 14 16" fill="none" xmlns="http://www.w3.org/2000/svg">
<path d="M12.625 7.15625H11.4297V3.21875C11.4297 1.97598 10.4225 0.96875 9.17969 0.96875H4.82031C3.57754 0.96875 2.57031 1.97598 2.57031 3.21875V7.15625H1.375C1.06387 7.15625 0.8125 7.40762 0.8125 7.71875V14.4688C0.8125 14.7799 1.06387 15.0312 1.375 15.0312H12.625C12.9361 15.0312 13.1875 14.7799 13.1875 14.4688V7.71875C13.1875 7.40762 12.9361 7.15625 12.625 7.15625ZM3.83594 3.21875C3.83594 2.67559 4.27715 2.23438 4.82031 2.23438H9.17969C9.72285 2.23438 10.1641 2.67559 10.1641 3.21875V7.15625H3.83594V3.21875ZM11.9219 13.7656H2.07812V8.42188H11.9219V13.7656ZM6.50781 11.3223V12.2539C6.50781 12.3313 6.57109 12.3945 6.64844 12.3945H7.35156C7.42891 12.3945 7.49219 12.3313 7.49219 12.2539V11.3223C7.63729 11.2181 7.74559 11.0706 7.80151 10.9009C7.85743 10.7313 7.85807 10.5482 7.80335 10.3782C7.74863 10.2082 7.64137 10.0599 7.49701 9.95468C7.35265 9.84948 7.17863 9.7928 7 9.7928C6.82137 9.7928 6.64735 9.84948 6.50299 9.95468C6.35863 10.0599 6.25137 10.2082 6.19665 10.3782C6.14193 10.5482 6.14257 10.7313 6.19849 10.9009C6.25441 11.0706 6.36271 11.2181 6.50781 11.3223Z" fill="#BFBFBF"/>
</svg>